<svg xmlns="http://www.w3.org/2000/svg" {{ with .width }} width="{{ . }}"{{ end }}{{ with .height }} height="{{ . }}"{{ end }}{{ with .class }} class="{{ . }}"{{ end }}  viewBox="0 0 429 438.86" role="img" preserveAspectRatio="xMidYMin meet"><defs><style>.cls-1{fill:#8557bb;}.cls-2{fill:#d5c5e8;}.cls-3{fill:#fff;}.cls-4{fill:#490499;}</style></defs><title>Untitled-2</title><path class="cls-1" d="M362.47,0H66.53A66.6,66.6,0,0,0,0,66.53V372.34a66.6,66.6,0,0,0,66.53,66.53H362.47A66.6,66.6,0,0,0,429,372.34V66.53A66.6,66.6,0,0,0,362.47,0Z"/><rect class="cls-2" x="23.01" y="23.01" width="382.98" height="392.84" rx="43.51" ry="43.51"/><rect class="cls-3" x="47.67" y="47.67" width="333.67" height="343.53" rx="18.86" ry="18.86"/><path class="cls-4" d="M165.4,322.81q-22.5-6.54-37.4-18.09L143.2,271q31,21.59,69.63,21.59,20.07,0,30.86-6.54t10.79-18.09q0-10.33-9.88-16.11t-35.12-11.25q-28.28-5.77-45.15-14t-24.63-20.22q-7.75-12-7.75-29.64a58.4,58.4,0,0,1,10.79-34.66q10.79-15.2,30.25-23.87t45-8.67a144.86,144.86,0,0,1,43.93,6.69q21.13,6.69,33.6,17.94l-15.2,33.75q-29.49-21.58-62-21.59-18.55,0-29.19,7.14t-10.64,19.61a17.62,17.62,0,0,0,4.1,12q4.1,4.72,13.68,8.36t27.21,7.6q41.34,9.12,59.44,23.41T301,264q0,30.41-23.41,47.89t-65.37,17.48A167,167,0,0,1,165.4,322.81Z"/></svg>